<svg width="227" height="35" viewBox="0 0 227 35" fill="none" xmlns="http://www.w3.org/2000/svg">
<path d="M16.82 2.344C18.568 -0.683998 21.432 -0.683998 23.18 2.344L38.852 29.492C40.6 32.52 39.172 35 35.672 35H4.32402C0.824024 35 -0.603977 32.52 1.14402 29.492L16.82 2.344Z" fill="url(#paint0_linear_3_2)"/>
<path d="M66.256 10.368V13.56H61.24V27H57.496V13.56H52.48V10.368H66.256ZM68.6622 10.368H72.4062V27H68.6622V10.368ZM80.672 10.368C80.96 10.896 81.288 11.552 81.656 12.336C82.04 13.104 82.432 13.944 82.832 14.856C83.248 15.752 83.656 16.672 84.056 17.616C84.456 18.56 84.832 19.448 85.184 20.28C85.536 19.448 85.912 18.56 86.312 17.616C86.712 16.672 87.112 15.752 87.512 14.856C87.928 13.944 88.32 13.104 88.688 12.336C89.072 11.552 89.408 10.896 89.696 10.368H93.104C93.264 11.472 93.408 12.712 93.536 14.088C93.68 15.448 93.8 16.872 93.896 18.36C94.008 19.832 94.104 21.312 94.184 22.8C94.28 24.288 94.36 25.688 94.424 27H90.776C90.728 25.384 90.664 23.624 90.584 21.72C90.504 19.816 90.384 17.896 90.224 15.96C89.936 16.632 89.616 17.376 89.264 18.192C88.912 19.008 88.56 19.824 88.208 20.64C87.872 21.456 87.544 22.24 87.224 22.992C86.904 23.728 86.632 24.36 86.408 24.888H83.792C83.568 24.36 83.296 23.728 82.976 22.992C82.656 22.24 82.32 21.456 81.968 20.64C81.632 19.824 81.288 19.008 80.936 18.192C80.584 17.376 80.264 16.632 79.976 15.96C79.816 17.896 79.696 19.816 79.616 21.72C79.536 23.624 79.472 25.384 79.424 27H75.776C75.84 25.688 75.912 24.288 75.992 22.8C76.088 21.312 76.184 19.832 76.28 18.36C76.392 16.872 76.512 15.448 76.64 14.088C76.784 12.712 76.936 11.472 77.096 10.368H80.672ZM97.795 27V10.368H109.027V13.512H101.539V16.776H108.187V19.848H101.539V23.856H109.579V27H97.795ZM130.451 10.368V13.56H125.435V27H121.691V13.56H116.675V10.368H130.451ZM137.73 10.176C140.226 10.176 142.138 10.624 143.466 11.52C144.794 12.4 145.458 13.776 145.458 15.648C145.458 16.816 145.186 17.768 144.642 18.504C144.114 19.224 143.346 19.792 142.338 20.208C142.674 20.624 143.026 21.104 143.394 21.648C143.762 22.176 144.122 22.736 144.474 23.328C144.842 23.904 145.194 24.512 145.53 25.152C145.866 25.776 146.178 26.392 146.466 27H142.266C141.962 26.456 141.65 25.904 141.33 25.344C141.026 24.784 140.706 24.24 140.37 23.712C140.05 23.184 139.73 22.688 139.41 22.224C139.09 21.744 138.77 21.312 138.45 20.928H136.602V27H132.858V10.608C133.674 10.448 134.514 10.336 135.378 10.272C136.258 10.208 137.042 10.176 137.73 10.176ZM137.946 13.368C137.674 13.368 137.426 13.376 137.202 13.392C136.994 13.408 136.794 13.424 136.602 13.44V17.952H137.658C139.066 17.952 140.074 17.776 140.682 17.424C141.29 17.072 141.594 16.472 141.594 15.624C141.594 14.808 141.282 14.232 140.658 13.896C140.05 13.544 139.146 13.368 137.946 13.368ZM160.751 27C160.575 26.424 160.375 25.832 160.151 25.224C159.943 24.616 159.735 24.008 159.527 23.4H153.047C152.839 24.008 152.623 24.616 152.399 25.224C152.191 25.832 151.999 26.424 151.823 27H147.935C148.559 25.208 149.151 23.552 149.711 22.032C150.271 20.512 150.815 19.08 151.343 17.736C151.887 16.392 152.415 15.12 152.927 13.92C153.455 12.704 153.999 11.52 154.559 10.368H158.135C158.679 11.52 159.215 12.704 159.743 13.92C160.271 15.12 160.799 16.392 161.327 17.736C161.871 19.08 162.423 20.512 162.983 22.032C163.543 23.552 164.135 25.208 164.759 27H160.751ZM156.263 14.136C156.183 14.376 156.063 14.704 155.903 15.12C155.743 15.536 155.559 16.016 155.351 16.56C155.143 17.104 154.911 17.704 154.655 18.36C154.415 19.016 154.167 19.704 153.911 20.424H158.639C158.383 19.704 158.135 19.016 157.895 18.36C157.655 17.704 157.423 17.104 157.199 16.56C156.991 16.016 156.807 15.536 156.647 15.12C156.487 14.704 156.359 14.376 156.263 14.136ZM173.887 27.336C171.183 27.336 169.119 26.584 167.695 25.08C166.287 23.576 165.583 21.44 165.583 18.672C165.583 17.296 165.799 16.072 166.231 15C166.663 13.912 167.255 13 168.007 12.264C168.759 11.512 169.655 10.944 170.695 10.56C171.735 10.176 172.863 9.984 174.079 9.984C174.783 9.984 175.423 10.04 175.999 10.152C176.575 10.248 177.079 10.368 177.511 10.512C177.943 10.64 178.303 10.776 178.591 10.92C178.879 11.064 179.087 11.176 179.215 11.256L178.135 14.28C177.623 14.008 177.023 13.776 176.335 13.584C175.663 13.392 174.895 13.296 174.031 13.296C173.455 13.296 172.887 13.392 172.327 13.584C171.783 13.776 171.295 14.088 170.863 14.52C170.447 14.936 170.111 15.48 169.855 16.152C169.599 16.824 169.471 17.64 169.471 18.6C169.471 19.368 169.551 20.088 169.711 20.76C169.887 21.416 170.159 21.984 170.527 22.464C170.911 22.944 171.407 23.328 172.015 23.616C172.623 23.888 173.359 24.024 174.223 24.024C174.767 24.024 175.255 23.992 175.687 23.928C176.119 23.864 176.503 23.792 176.839 23.712C177.175 23.616 177.471 23.512 177.727 23.4C177.983 23.288 178.215 23.184 178.423 23.088L179.455 26.088C178.927 26.408 178.183 26.696 177.223 26.952C176.263 27.208 175.151 27.336 173.887 27.336ZM191.681 27C191.345 26.456 190.945 25.872 190.481 25.248C190.033 24.608 189.537 23.976 188.993 23.352C188.465 22.712 187.913 22.104 187.337 21.528C186.761 20.936 186.185 20.416 185.609 19.968V27H181.865V10.368H185.609V16.656C186.585 15.632 187.561 14.568 188.537 13.464C189.529 12.344 190.449 11.312 191.297 10.368H195.737C194.601 11.712 193.457 13.008 192.305 14.256C191.169 15.504 189.969 16.76 188.705 18.024C190.033 19.128 191.313 20.44 192.545 21.96C193.793 23.48 194.985 25.16 196.121 27H191.681ZM198.272 27V10.368H209.504V13.512H202.016V16.776H208.664V19.848H202.016V23.856H210.056V27H198.272ZM217.698 10.176C220.194 10.176 222.106 10.624 223.434 11.52C224.762 12.4 225.426 13.776 225.426 15.648C225.426 16.816 225.154 17.768 224.61 18.504C224.082 19.224 223.314 19.792 222.306 20.208C222.642 20.624 222.994 21.104 223.362 21.648C223.73 22.176 224.09 22.736 224.442 23.328C224.81 23.904 225.162 24.512 225.498 25.152C225.834 25.776 226.146 26.392 226.434 27H222.234C221.93 26.456 221.618 25.904 221.298 25.344C220.994 24.784 220.674 24.24 220.338 23.712C220.018 23.184 219.698 22.688 219.378 22.224C219.058 21.744 218.738 21.312 218.418 20.928H216.57V27H212.826V10.608C213.642 10.448 214.482 10.336 215.346 10.272C216.226 10.208 217.01 10.176 217.698 10.176ZM217.914 13.368C217.642 13.368 217.394 13.376 217.17 13.392C216.962 13.408 216.762 13.424 216.57 13.44V17.952H217.626C219.034 17.952 220.042 17.776 220.65 17.424C221.258 17.072 221.562 16.472 221.562 15.624C221.562 14.808 221.25 14.232 220.626 13.896C220.018 13.544 219.114 13.368 217.914 13.368Z" fill="black"/>
<defs>
<linearGradient id="paint0_linear_3_2" x1="40" y1="31.036" x2="22" y2="0.53601" gradientUnits="userSpaceOnUse">
<stop stop-color="#5056ED"/>
<stop offset="1" stop-color="#9598EA"/>
</linearGradient>
</defs>
</svg>
